<svg aria-hidden="true" style="position: absolute; width: 0; height: 0; overflow: hidden;" version="1.1"
  xmlns="http://www.w3.org/2000/svg" xmlns:xlink="http://www.w3.org/1999/xlink">
  <defs>
    <symbol id="close-button" viewBox="0 0 32 32">
      <path stroke-linejoin="round" stroke-miterlimit="4" stroke-width="3.4286"
        d="M24 8l-16 16M8 8l16 16"></path>
    </symbol>
    <symbol id="arrow-right" viewBox="0 0 32 32">
      <path fill="none" stroke="#eac645" style="stroke: #eac645" stroke-linejoin="round"
        stroke-linecap="round" stroke-miterlimit="4" stroke-width="3.2"
        d="M5.333 16h21.333M26.667 16l-8-8M26.667 16l-8 8"></path>
    </symbol>
     <symbol id="user-icon" viewBox="0 0 32 32">
      <path fill="#f6f6f6" style="fill: var(--color1, #f6f6f6)"
        d="M32 16c0 8.837-7.163 16-16 16s-16-7.163-16-16c0-8.837 7.163-16 16-16s16 7.163 16 16z"></path>
      <path fill="#4f2ee8" style="fill: var(--color2, #4f2ee8)"
        d="M10.523 22.847c0-1.453 0.577-2.846 1.604-3.873s2.421-1.604 3.873-1.604 2.846 0.577 3.873 1.604c1.027 1.027 1.604 2.421 1.604 3.873h-10.955zM16 16.685c-2.27 0-4.108-1.838-4.108-4.108s1.838-4.108 4.108-4.108c2.27 0 4.108 1.838 4.108 4.108s-1.838 4.108-4.108 4.108z">
      </path>
    </symbol>
    <symbol id="arrow-down" viewBox="0 0 28 32">
      <path fill="#fff" style="fill: var(--color5, #fff)"
        d="M5.897 12h16.513l-7.423 8.391c-0.221 0.25-0.521 0.39-0.834 0.39s-0.613-0.14-0.834-0.39l-7.423-8.391z"></path>
    </symbol>
    <symbol id="icon-align-left" viewBox="0 0 32 32">
    <path stroke-linejoin="round" stroke-linecap="round" stroke-miterlimit="4" stroke-width="2.2857" d="M22.667 13.333h-18.667"></path>
    <path stroke-linejoin="round" stroke-linecap="round" stroke-miterlimit="4" stroke-width="2.2857" d="M28 8h-24"></path>
    <path stroke-linejoin="round" stroke-linecap="round" stroke-miterlimit="4" stroke-width="2.2857" d="M28 18.667h-24"></path>
    <path stroke-linejoin="round" stroke-linecap="round" stroke-miterlimit="4" stroke-width="2.2857" d="M22.667 24h-18.667"></path>
</symbol>
    <symbol id="icon-logo" viewBox="0 0 32 32">
    <path fill="#f6f6f6" style="fill: var(--color1, #f6f6f6)" d="M0 0l16.343 16.171 15.657 15.829v-32h-32z"></path>
    <path fill="#f6f6f6" style="fill: var(--color1, #f6f6f6)" d="M4.457 4.229l11.943 11.829 11.257 11.486h-23.2v-23.314z"></path>
    <path fill="#4f2ee8" style="fill: var(--color2, #4f2ee8)" d="M27.733 27.618l-11.943-11.829-11.257-11.486h23.2v23.314z"></path>
    <path fill="#4f2ee8" style="fill: var(--color2, #4f2ee8)" d="M9.257 9.029l13.6 13.6h-13.6v-13.6z"></path>
    <path fill="#f6f6f6" style="fill: var(--color1, #f6f6f6)" d="M9.257 9.029l13.6 13.6v-13.6h-13.6z"></path>
</symbol>
<symbol id="icon-uil_cart" viewBox="0 0 32 32">
<path d="M25.334 9.333h-4v-1.333c0-1.415-0.562-2.771-1.562-3.771s-2.357-1.562-3.771-1.562c-1.415 0-2.771 0.562-3.771 1.562s-1.562 2.357-1.562 3.771v1.333h-4c-0.354 0-0.693 0.14-0.943 0.391s-0.391 0.589-0.391 0.943v14.667c0 1.061 0.421 2.078 1.172 2.828s1.768 1.172 2.828 1.172h13.333c1.061 0 2.078-0.421 2.828-1.172s1.172-1.768 1.172-2.828v-14.667c0-0.354-0.14-0.693-0.391-0.943s-0.589-0.391-0.943-0.391zM13.334 8c0-0.707 0.281-1.386 0.781-1.886s1.178-0.781 1.886-0.781c0.707 0 1.385 0.281 1.886 0.781s0.781 1.178 0.781 1.886v1.333h-5.333v-1.333zM24 25.333c0 0.354-0.14 0.693-0.391 0.943s-0.589 0.391-0.943 0.391h-13.333c-0.354 0-0.693-0.14-0.943-0.391s-0.391-0.589-0.391-0.943v-13.333h2.667v1.333c0 0.354 0.14 0.693 0.391 0.943s0.589 0.391 0.943 0.391c0.354 0 0.693-0.14 0.943-0.391s0.39-0.589 0.39-0.943v-1.333h5.333v1.333c0 0.354 0.14 0.693 0.391 0.943s0.589 0.391 0.943 0.391c0.354 0 0.693-0.14 0.943-0.391s0.391-0.589 0.391-0.943v-1.333h2.667v13.333z"></path>
</symbol>
  </defs>
</svg>